FFmpeg version SVN-r25716, Copyright (c) 2000-2010 the FFmpeg developers  built on Nov 10 2010 12:23:18 with gcc 4.1.2 20080704 (Red Hat 4.1.2-48)  configuration: --enable-libmp3lame --enable-shared --disable-mmx --arch=x86_64  libavutil     50.33. 0 / 50.33. 0  libavcore      0.12. 1 /  0.12. 1  libavcodec    52.94. 4 / 52.94. 4  libavformat   52.84. 0 / 52.84. 0  libavdevice   52. 2. 2 / 52. 2. 2  libavfilter    1.59. 0 /  1.59. 0  libswscale     0.12. 0 /  0.12. 0[mov,mp4,m4a,3gp,3g2,mj2 @ 0x119ae4c0] max_analyze_duration reachedInput #0, mov,mp4,m4a,3gp,3g2,mj2, from '/RAID10/data/converted_video_files/37410.mov':  Duration: 00:00:46.31, start: 0.000000, bitrate: 620 kb/s    Stream #0.0(eng): Video: smc, pal8, 320x240, 599 kb/s, 2.83 fps, 600 tbr, 600 tbn, 600 tbc    Stream #0.1(eng): Data: rtp  / 0x20707472, 19 kb/s[buffer @ 0x119b6c30] w:320 h:240 pixfmt:pal8[ffsink @ 0x11a77260] auto-inserting filter 'auto-inserted scaler 0' between the filter 'src' and the filter 'out'[scale @ 0x11a77580] w:320 h:240 fmt:pal8 -> w:320 h:240 fmt:yuv420p flags:0x4Output #0, flv, to '/RAID10/data/converted_video_files/37410.flv':  Metadata:    encoder         : Lavf52.84.0    Stream #0.0(eng): Video: flv, yuv420p, 320x240, q=2-31, 600 kb/s, 1k tbn, 24 tbcStream mapping:  Stream #0.0 -> #0.0Press [q] to stop encodingframe=   71 fps=  0 q=6.4 size=     800kB time=24.50 bitrate= 267.5kbits/s    frame=  118 fps=112 q=5.0 size=    1475kB time=41.29 bitrate= 292.7kbits/s    frame=  131 fps=104 q=4.6 Lsize=    1679kB time=46.04 bitrate= 298.8kbits/s    video:1677kB audio:0kB global headers:0kB muxing overhead 0.134265%